<svg xmlns="http://www.w3.org/2000/svg" width="28.36" height="24" viewBox="0 0 28.36 24">
  <g id="Group_5" data-name="Group 5" transform="translate(-137.5 -178.845)">
    <g id="student-1" transform="translate(137.5 178.845)">
      <path id="Path_6" data-name="Path 6" d="M15.556,20.26a.711.711,0,0,1-.356-.1L2.109,12.542a.707.707,0,0,1,.016-1.229L15.981,3.689a.7.7,0,0,1,.7.01l13.094,7.62a.707.707,0,0,1-.016,1.229L15.9,20.171A.679.679,0,0,1,15.556,20.26ZM3.9,11.951l11.672,6.795,12.412-6.83L16.308,5.121Z" transform="translate(-1.76 -3.601)"/>
      <path id="Path_7" data-name="Path 7" d="M26.534,11.415l1.413-.013.076,8.011-1.413.013ZM15.3,26.184a9.481,9.481,0,0,1-9.471-9.471V13.407H7.244v3.305a8.058,8.058,0,1,0,16.117,0V12.868h1.413v3.845A9.481,9.481,0,0,1,15.3,26.184Z" transform="translate(-1.02 -2.184)"/>
    </g>
  </g>
</svg>
