<svg xmlns="http://www.w3.org/2000/svg" width="26.7" height="24" viewBox="0 0 26.7 24">
  <g id="teacher-7" transform="translate(-66.6 -111.6)">
    <path id="Path_3" data-name="Path 3" d="M73.943,310.134a4.367,4.367,0,1,1,4.367-4.37A4.372,4.372,0,0,1,73.943,310.134Zm0-7.3a2.931,2.931,0,1,0,2.931,2.931A2.936,2.936,0,0,0,73.943,302.833Zm7.34,16.587H79.848v-4.325a3.07,3.07,0,0,0-3.066-3.066H71.1a3.07,3.07,0,0,0-3.066,3.066v4.325H66.6v-4.325a4.508,4.508,0,0,1,4.5-4.5h5.677a4.508,4.508,0,0,1,4.5,4.5v4.328Z" transform="translate(0 -184.111)"/>
    <path id="Path_4" data-name="Path 4" d="M246.467,132.194h-8.98v-1.436h7.544V113.036h-19.1v3.234H224.5V111.6h21.967Z" transform="translate(-153.167 0)"/>
    <path id="Path_5" data-name="Path 5" d="M510.715,493.179l5.535-12.346,1.31.587-5.535,12.346Z" transform="translate(-430.804 -358.166)"/>
  </g>
</svg>
